<svg width="34" height="26" viewBox="0 0 34 26" fill="none" xmlns="http://www.w3.org/2000/svg">
<g clip-path="url(#clip0_25862_96214)">
<g clip-path="url(#clip1_25862_96214)">
<rect width="32" height="24" transform="translate(1 1)" fill="white"/>
<path fill-rule="evenodd" clip-rule="evenodd" d="M1 1V25H33V1H1Z" fill="#2E42A5"/>
<mask id="mask0_25862_96214" style="mask-type:luminance" maskUnits="userSpaceOnUse" x="1" y="1" width="32" height="24">
<path fill-rule="evenodd" clip-rule="evenodd" d="M1 1V25H33V1H1Z" fill="white"/>
</mask>
<g mask="url(#mask0_25862_96214)">
<path d="M-2.56323 23.2854L4.47846 26.2634L33.1597 4.23781L36.874 -0.187674L29.344 -1.18303L17.6456 8.30844L8.22956 14.7035L-2.56323 23.2854Z" fill="white"/>
<path d="M-1.59924 25.3719L1.98817 27.1001L35.5402 -0.598843H30.5031L-1.59924 25.3719Z" fill="#F50100"/>
<path d="M36.5631 23.2854L29.5214 26.2634L0.840183 4.23781L-2.87415 -0.187674L4.65593 -1.18303L16.3543 8.30844L25.7703 14.7035L36.5631 23.2854Z" fill="white"/>
<path d="M36.3229 24.7828L32.7355 26.511L18.4487 14.6516L14.2129 13.3266L-3.23151 -0.172585H1.80564L19.2403 13.0062L23.8713 14.595L36.3229 24.7828Z" fill="#F50100"/>
<mask id="path-9-inside-1_25862_96214" fill="white">
<path fill-rule="evenodd" clip-rule="evenodd" d="M20.7777 -1H13.2222V9H-0.972534V17H13.2222V27H20.7777V17H35.0275V9H20.7777V-1Z"/>
</mask>
<path fill-rule="evenodd" clip-rule="evenodd" d="M20.7777 -1H13.2222V9H-0.972534V17H13.2222V27H20.7777V17H35.0275V9H20.7777V-1Z" fill="#F50100"/>
<path d="M13.2222 -1V-3H11.2222V-1H13.2222ZM20.7777 -1H22.7777V-3H20.7777V-1ZM13.2222 9V11H15.2222V9H13.2222ZM-0.972534 9V7H-2.97253V9H-0.972534ZM-0.972534 17H-2.97253V19H-0.972534V17ZM13.2222 17H15.2222V15H13.2222V17ZM13.2222 27H11.2222V29H13.2222V27ZM20.7777 27V29H22.7777V27H20.7777ZM20.7777 17V15H18.7777V17H20.7777ZM35.0275 17V19H37.0275V17H35.0275ZM35.0275 9H37.0275V7H35.0275V9ZM20.7777 9H18.7777V11H20.7777V9ZM13.2222 1H20.7777V-3H13.2222V1ZM15.2222 9V-1H11.2222V9H15.2222ZM-0.972534 11H13.2222V7H-0.972534V11ZM1.02747 17V9H-2.97253V17H1.02747ZM13.2222 15H-0.972534V19H13.2222V15ZM15.2222 27V17H11.2222V27H15.2222ZM20.7777 25H13.2222V29H20.7777V25ZM18.7777 17V27H22.7777V17H18.7777ZM35.0275 15H20.7777V19H35.0275V15ZM33.0275 9V17H37.0275V9H33.0275ZM20.7777 11H35.0275V7H20.7777V11ZM18.7777 -1V9H22.7777V-1H18.7777Z" fill="white" mask="url(#path-9-inside-1_25862_96214)"/>
</g>
</g>
</g>
<defs>
<clipPath id="clip0_25862_96214">
<rect x="1" y="1" width="32" height="24" rx="2" fill="white"/>
</clipPath>
<clipPath id="clip1_25862_96214">
<rect width="32" height="24" fill="white" transform="translate(1 1)"/>
</clipPath>
</defs>
</svg>
