<?xml version="1.0" encoding="utf-8"?>
<!-- Generator: Adobe Illustrator 27.0.0, SVG Export Plug-In . SVG Version: 6.00 Build 0)  -->
<svg version="1.1" id="Ebene_1" xmlns="http://www.w3.org/2000/svg" xmlns:xlink="http://www.w3.org/1999/xlink" x="0px" y="0px"
	 viewBox="0 0 112.2 28.3" style="enable-background:new 0 0 112.2 28.3;" xml:space="preserve">
<style type="text/css">
	.st0{fill:#E2001A;}
	.st1{fill:#FFFFFF;}
</style>
<g>
	<g>
		<path class="st0" d="M14.2,28.3c7.8,0,14.2-6.3,14.2-14.2C28.3,6.3,22,0,14.2,0C6.3,0,0,6.3,0,14.2C0,22,6.3,28.3,14.2,28.3z"/>
	</g>
	<g>
		<g>
			<path class="st1" d="M25.4,15c0,0-0.4,0.3-0.6,0.3s-0.3-0.2-0.3-0.3c0-0.4,0.6-2.4,0.6-2.4h-1.6l-0.1,0.3c0,0-0.2-0.5-1.1-0.5
				c-1.6,0-2.5,1.4-2.5,2.2c0,0.2,0,0.2,0,0.2s-0.6,0.7-1.3,0.7c-0.6,0-0.6-0.5-0.6-0.8s0.3-1.6,1-1.6c0.4,0,0.7,0.4,0.7,0.4
				l0.2-0.7c0,0-0.4-0.3-1.1-0.3c-1.5,0-2.6,1.2-2.6,2.2c0,0.2,0,0.2,0,0.2c-0.1,0.1-0.4,0.5-0.9,0.5c-0.3,0-0.3-0.3-0.3-0.4
				c0-0.2,0.7-2.4,0.7-2.4h-1.7l-0.6,2.2c0,0-1,0.7-2.3,0.8c-0.7,0-0.9-0.4-0.9-0.6c0-0.1,0-0.1,0-0.1s0.3,0,0.5,0s2.2-0.1,2.2-1.4
				c0-0.7-0.7-1-1.6-1c-1.7,0-2.8,1-2.8,2.3c0,1.1,1,1.6,2.2,1.6c1.4,0,2.8-0.9,2.8-0.9s0.1,0.9,1.2,0.9s2-0.9,2-0.9
				s0.5,0.8,1.6,0.8c1.2,0,2-0.9,2-0.9s0.3,0.9,1.5,0.9c0.9,0,1.4-0.6,1.4-0.6s0.3,0.6,1,0.6c1,0,1.7-0.7,1.7-0.7L25.4,15z
				 M11.1,12.9c0.2,0,0.4,0.2,0.4,0.4c0,1.1-1.4,0.9-1.4,0.9S10.3,12.9,11.1,12.9z M22.1,15.4c-0.4,0-0.4-0.5-0.4-0.6
				c0-0.4,0.3-1.8,1.1-1.8c0.3,0,0.5,0.3,0.5,0.5C23.3,13.5,23.1,15.4,22.1,15.4z"/>
			<path class="st1" d="M25.8,16.5c0,0-3.7,1.3-10.7,1.2c-4.8-0.1-8.5-1.5-8.5-1.5s0.1-0.2,0.2-0.4c0.5-1,1.1-3,1.1-3
				s3.3-0.9,3.3-3.6c0-0.8-0.8-1.4-1.5-1.4C6.9,7.7,6.2,11.5,6,12.2v0.1C5.2,12.1,4.7,12,4.7,12l-0.2,0.5c0.6,0.3,1.4,0.3,1.4,0.3
				c-0.2,1-1,3-1,3s-0.7-0.2-1.6-0.2c-1.2,0-1.6,0.6-1.6,0.9c-0.1,0.9,1.1,1.3,1.9,1.3C5.2,17.8,6,17,6,17s4.4,1.7,9,1.7
				c6,0,11-1.6,11-1.6L25.8,16.5z M9.7,8.6c0.5,0,0.7,0.4,0.6,0.8c-0.3,2.2-2.4,2.7-2.4,2.7S8.5,8.6,9.7,8.6z M3.2,17.1
				c-0.4,0-0.7-0.3-0.7-0.4c0-0.4,0.4-0.4,0.7-0.4c0.7,0,1.3,0.3,1.3,0.3S3.8,17.1,3.2,17.1z"/>
		</g>
		<path class="st1" d="M15,10.4c-0.6,0-1,0.2-1,0.7s0.5,0.7,1,0.7s0.9-0.2,0.9-0.8C16,10.5,15.4,10.4,15,10.4z"/>
	</g>
</g>
<g>
	<path class="st1" d="M43.8,18.2h-5.9V8.8h1.8v7.8h4.1C43.8,16.6,43.8,18.2,43.8,18.2z"/>
	<path class="st1" d="M51.4,18.2h-6.1V8.8h5.9v1.5h-4.1v2.2h3.7V14h-3.7v2.6h4.3C51.4,16.6,51.4,18.2,51.4,18.2z"/>
	<path class="st1" d="M54.9,18.2h-1.8V8.8h1.8V18.2z"/>
	<path class="st1" d="M64.3,14.7c0,1.1-0.3,1.9-0.7,2.5C63,18,62.1,18.4,61,18.4c-1.3,0-2.3-0.5-3.1-1.4c-0.7-0.9-1.1-2-1.1-3.4
		c0-0.8,0.1-1.4,0.2-1.9c0.3-0.9,0.7-1.7,1.4-2.2s1.5-0.8,2.5-0.8s1.8,0.3,2.4,0.9c0.6,0.6,0.9,1.4,0.9,2.4h-1.6
		c-0.1-0.5-0.3-0.9-0.6-1.2s-0.7-0.5-1.2-0.5c-0.4,0-0.8,0.1-1.1,0.3s-0.5,0.5-0.7,0.8c-0.2,0.4-0.3,0.7-0.3,1.1
		c-0.1,0.4-0.1,0.8-0.1,1.2s0,0.8,0.1,1.1c0.1,0.4,0.2,0.7,0.4,1c0.2,0.3,0.4,0.6,0.7,0.8c0.3,0.2,0.7,0.3,1.1,0.3
		c0.6,0,1-0.2,1.3-0.6s0.4-0.9,0.5-1.5h1.6V14.7z"/>
	<path class="st1" d="M73.2,18.2h-1.9l-0.6-2h-3.3l-0.6,2H65l3.2-9.4H70L73.2,18.2z M70.3,14.7l-1.2-3.8l-1.2,3.8H70.3z"/>
	<path class="st1" d="M89.7,8.8l-2.4,9.4h-2l-1.5-6.1l-1.5,6.1h-2l-2.4-9.4h1.7l1.8,7.3L83,8.8h1.5l1.8,7.3l1.8-7.3H89.7z"/>
	<path class="st1" d="M97.2,18.2h-6.1V8.8H97v1.5h-4v2.2h3.7V14H93v2.6h4.3v1.6H97.2z"/>
	<path class="st1" d="M104.9,18.2H99V8.8h1.8v7.8h4.1V18.2z"/>
	<path class="st1" d="M112.2,10.4h-2.5v7.8h-1.8v-7.8h-2.5V8.8h6.8V10.4z"/>
</g>
</svg>
