<?xml version="1.0" encoding="UTF-8"?>
<svg id="Ebene_1" xmlns="http://www.w3.org/2000/svg" version="1.1" viewBox="0 0 28.4 28.3">
  <!-- Generator: Adobe Illustrator 29.1.0, SVG Export Plug-In . SVG Version: 2.1.0 Build 142)  -->
  <defs>
    <style>
      .st0 {
        fill: #fff;
      }

      .st1 {
        fill: #e2001a;
      }
    </style>
  </defs>
  <path class="st1" d="M14.2,28.3c7.8,0,14.2-6.3,14.2-14.2C28.3,6.3,22,0,14.2,0S0,6.3,0,14.2s6.3,14.1,14.2,14.1Z"/>
  <g>
    <g>
      <path class="st0" d="M25.4,15s-.4.3-.6.3-.3-.2-.3-.3c0-.4.6-2.4.6-2.4h-1.6v.3c-.1,0-.3-.5-1.2-.5-1.6,0-2.5,1.4-2.5,2.2v.2s-.6.7-1.3.7-.6-.5-.6-.8.3-1.6,1-1.6.7.4.7.4l.2-.7s-.4-.3-1.1-.3c-1.5,0-2.6,1.2-2.6,2.2v.2c-.1.1-.4.5-.9.5s-.3-.3-.3-.4c0-.2.7-2.4.7-2.4h-1.7l-.6,2.2s-1,.7-2.3.8c-.7,0-.9-.4-.9-.6h0c0-.1.3-.1.5-.1s2.2-.1,2.2-1.4-.7-1-1.6-1c-1.7,0-2.8,1-2.8,2.3s1,1.6,2.2,1.6,2.8-.9,2.8-.9c0,0,.1.9,1.2.9s2-.9,2-.9c0,0,.5.8,1.6.8s2-.9,2-.9c0,0,.3.9,1.5.9s1.4-.6,1.4-.6c0,0,.3.6,1,.6,1,0,1.7-.7,1.7-.7l-.4-.6ZM11.1,12.9c.2,0,.4.2.4.4,0,1.1-1.4.9-1.4.9,0,0,.2-1.3,1-1.3ZM22.1,15.4c-.4,0-.4-.5-.4-.6,0-.4.3-1.8,1.1-1.8s.5.3.5.5c0,0-.2,1.9-1.2,1.9Z"/>
      <path class="st0" d="M25.8,16.5s-3.7,1.3-10.7,1.2c-4.8-.1-8.5-1.5-8.5-1.5,0,0,0-.2.2-.4.5-1,1.1-3,1.1-3,0,0,3.3-.9,3.3-3.6s-.8-1.4-1.5-1.4c-2.8-.1-3.5,3.7-3.7,4.4h0c-.8,0-1.3-.2-1.3-.2l-.2.5c.6.3,1.4.3,1.4.3-.2,1-1,3-1,3,0,0-.7-.2-1.6-.2s-1.6.6-1.6.9c-.1.9,1.1,1.3,1.9,1.3,1.6,0,2.4-.8,2.4-.8,0,0,4.4,1.7,9,1.7s11-1.6,11-1.6l-.2-.6ZM9.7,8.6c.5,0,.7.4.6.8-.3,2.2-2.4,2.7-2.4,2.7,0,0,.6-3.5,1.8-3.5ZM3.2,17.1c-.4,0-.7-.3-.7-.4,0-.4.4-.4.7-.4.7,0,1.3.3,1.3.3,0,0-.7.5-1.3.5Z"/>
    </g>
    <path class="st0" d="M15,10.4c-.6,0-1,.2-1,.7s.5.7,1,.7.9-.2.9-.8c.1-.5-.5-.6-.9-.6Z"/>
  </g>
</svg>