<?xml version="1.0" encoding="UTF-8"?>
<svg id="Ebene_1" xmlns="http://www.w3.org/2000/svg" version="1.1" viewBox="0 0 113.4 113.4" width="113" height="113">
  <defs>
    <style>
      .st0 {
        fill: currentColor;
      }
    </style>
  </defs>
  <path class="st0" d="M56.7,99.2c-6,0-11.7-1.1-17-3.4-5.3-2.3-10-5.5-14.1-9.5-4.1-4.1-7.2-8.7-9.5-14.1-2.3-5.3-3.5-11-3.5-17s1.1-11.7,3.5-17c2.3-5.3,5.5-10,9.5-14.1,4-4.1,8.7-7.2,14-9.5,5.3-2.3,11-3.4,17-3.4s11.7,1.1,17.1,3.4c5.3,2.3,10,5.5,14.1,9.5,4,4.1,7.2,8.7,9.5,14.1s3.5,11,3.5,17-1.2,11.7-3.5,17-5.5,10-9.5,14.1-8.7,7.2-14,9.5c-5.3,2.3-11,3.4-17,3.4ZM56.7,93.5c5.3,0,10.3-1,14.9-3,4.6-2,8.7-4.7,12.3-8.3,3.5-3.5,6.3-7.6,8.3-12.2,2-4.6,3-9.6,3-14.9s-1-10.3-3-14.9c-2-4.6-4.7-8.7-8.3-12.3-3.5-3.5-7.6-6.3-12.2-8.3-4.6-2-9.6-3-15-3s-10.3,1-14.9,3c-4.6,2-8.7,4.7-12.2,8.3-3.5,3.5-6.2,7.6-8.2,12.3-2,4.6-3,9.6-3,14.9s1,10.3,3,14.9c2,4.6,4.7,8.7,8.2,12.2s7.6,6.3,12.2,8.3c4.6,2,9.6,3,14.9,3ZM32.3,70.2v-11.7c0-1.8.2-3.3.6-4.4.4-1.1,1.1-2.3,2-3.4l1.8-2.4c.4-1.9.9-3.7,1.5-5.5.6-1.8,1.1-3,1.4-3.8.6-1.2,1.3-2.1,2.4-2.7s2.2-1.1,3.5-1.2c.7,0,2.2-.2,4.3-.2,2.1,0,4.4,0,7,0s4.9,0,7,0c2.1,0,3.5.1,4.3.2,1.3.2,2.4.6,3.5,1.2,1,.6,1.8,1.6,2.4,2.7.4.8.8,2,1.4,3.8.6,1.8,1.1,3.6,1.5,5.5l1.8,2.4c.9,1.1,1.5,2.3,2,3.4.4,1.1.6,2.6.6,4.4v11.7c0,.8-.3,1.4-.8,1.9-.5.5-1.2.8-1.9.8h-2.4c-.8,0-1.4-.3-1.9-.8-.5-.5-.8-1.1-.8-1.9v-3.4c-2.3.1-5,.2-8,.3-3,.1-5.9.2-8.5.2s-5.5,0-8.5-.2c-3-.1-5.7-.2-8.1-.3v3.4c0,.8-.3,1.4-.8,1.9-.5.5-1.2.8-1.9.8h-2.5c-.8,0-1.4-.3-1.9-.8-.5-.5-.8-1.1-.8-1.9ZM38.4,58.4c0,.9.3,1.6.9,2.2s1.3.9,2.2.9,1.6-.3,2.2-.9.9-1.3.9-2.2-.3-1.6-.9-2.2c-.6-.6-1.3-.9-2.2-.9s-1.6.3-2.2.9c-.6.6-.9,1.3-.9,2.2ZM41.3,46.5c-.1.6.1.9.8.9,1.7-.1,3.7-.2,5.9-.3,2.2,0,5.1-.1,8.7-.1s6.5,0,8.7.1c2.2,0,4.1.2,5.9.3.8,0,1-.2.8-.9-.3-1.3-.6-2.5-1-3.7-.4-1.2-.8-2.1-1.1-2.7-.3-.5-.6-.9-1-1.2-.4-.3-.9-.5-1.6-.5-.8-.1-2.1-.2-3.8-.3-1.8,0-4.1,0-6.8,0s-5.1,0-6.9,0c-1.8,0-3,.1-3.8.3-.7,0-1.2.2-1.6.5-.4.3-.7.7-1,1.2-.3.6-.7,1.5-1.1,2.7-.4,1.2-.7,2.4-1,3.7ZM49.1,58.7c0,.6.2,1.2.6,1.6.4.4.9.6,1.6.6h10.8c.6,0,1.2-.2,1.6-.6.4-.4.6-.9.6-1.6s-.2-1.2-.6-1.6-.9-.6-1.6-.6h-10.8c-.6,0-1.1.2-1.6.6-.4.4-.6.9-.6,1.6ZM68.7,58.4c0,.9.3,1.6.9,2.2.6.6,1.3.9,2.2.9s1.6-.3,2.2-.9c.6-.6.9-1.3.9-2.2s-.3-1.6-.9-2.2c-.6-.6-1.3-.9-2.2-.9s-1.6.3-2.2.9c-.6.6-.9,1.3-.9,2.2Z"/>
</svg>