<?xml version="1.0" encoding="UTF-8"?>
<svg id="Ebene_1" xmlns="http://www.w3.org/2000/svg" version="1.1" viewBox="0 0 113.4 113.4" width="113" height="113">
  <defs>
    <style>
      .st0 {
        fill: currentColor;
      }
    </style>
  </defs>
  <path class="st0" d="M56.7,99.9c-6,0-11.7-1.1-17-3.4-5.3-2.3-10-5.5-14.1-9.5-4.1-4.1-7.2-8.7-9.5-14.1-2.3-5.3-3.5-11-3.5-17s1.1-11.7,3.5-17c2.3-5.3,5.5-10,9.5-14.1,4-4.1,8.7-7.2,14-9.5,5.3-2.3,11-3.4,17-3.4s11.7,1.1,17.1,3.4c5.3,2.3,10,5.5,14.1,9.5,4,4.1,7.2,8.7,9.5,14.1s3.5,11,3.5,17-1.2,11.7-3.5,17-5.5,10-9.5,14.1-8.7,7.2-14,9.5c-5.3,2.3-11,3.4-17,3.4ZM56.7,94.3c5.3,0,10.3-1,14.9-3,4.6-2,8.7-4.7,12.3-8.3,3.5-3.5,6.3-7.6,8.3-12.2,2-4.6,3-9.6,3-14.9s-1-10.3-3-14.9c-2-4.6-4.7-8.7-8.3-12.3-3.5-3.5-7.6-6.3-12.2-8.3-4.6-2-9.6-3-15-3s-10.3,1-14.9,3c-4.6,2-8.7,4.7-12.2,8.3-3.5,3.5-6.2,7.6-8.2,12.3-2,4.6-3,9.6-3,14.9s1,10.3,3,14.9c2,4.6,4.7,8.7,8.2,12.2s7.6,6.3,12.2,8.3c4.6,2,9.6,3,14.9,3ZM47.2,75.8c-.8,0-1.5-.3-2-.8-.5-.6-.7-1.3-.7-2.2v-34c0-.9.2-1.6.7-2.2.5-.6,1.1-.8,2-.8h12.3c3.9,0,7.1,1.2,9.6,3.6,2.5,2.4,3.7,5.5,3.7,9.3s-1.2,6.9-3.7,9.3c-2.5,2.4-5.7,3.6-9.7,3.6h-9.5v11.2c0,.9-.2,1.7-.7,2.2-.5.5-1.1.8-2,.8ZM49.9,57.3h8.9c2.6,0,4.7-.8,6.3-2.4s2.4-3.6,2.4-6.2-.8-4.7-2.4-6.3c-1.6-1.6-3.7-2.4-6.3-2.4h-8.9v17.2Z"/>
</svg>