<?xml version="1.0" encoding="UTF-8"?>
<svg id="Ebene_1" xmlns="http://www.w3.org/2000/svg" version="1.1" viewBox="0 0 113.4 113.4" width="113" height="113">
  <defs>
    <style>
      .st0 {
        fill: currentColor;
      }
    </style>
  </defs>
  <path class="st0" d="M56.7,99.4c-6,0-11.7-1.2-17-3.5s-10-5.5-14.1-9.5c-4.1-4.1-7.2-8.7-9.5-14.1-2.3-5.3-3.4-11-3.4-17s1.1-11.7,3.4-17c2.3-5.3,5.5-10,9.5-14.1,4-4.1,8.7-7.2,14-9.5,5.3-2.3,11-3.4,17-3.4s11.7,1.1,17.1,3.4c5.3,2.3,10,5.5,14.1,9.5,4,4.1,7.2,8.7,9.5,14.1s3.5,11,3.5,17-1.2,11.7-3.5,17-5.5,10-9.5,14.1-8.7,7.2-14,9.5c-5.3,2.3-11,3.5-17,3.5ZM56.7,93.8c5.3,0,10.3-1,14.9-3,4.6-2,8.7-4.7,12.3-8.3s6.3-7.6,8.3-12.2c2-4.6,3-9.6,3-14.9s-1-10.3-3-14.9c-2-4.6-4.7-8.7-8.3-12.3-3.5-3.5-7.6-6.3-12.2-8.3-4.6-2-9.6-3-15-3s-10.3,1-14.9,3c-4.6,2-8.7,4.7-12.2,8.3-3.5,3.5-6.2,7.6-8.2,12.3-2,4.6-3,9.6-3,14.9s1,10.3,3,14.9,4.7,8.7,8.2,12.2,7.6,6.3,12.2,8.3c4.6,2,9.6,3,14.9,3ZM45.4,65.8c-2.5-2.5-4.8-5.2-6.8-8.1-2-2.8-3.5-5.7-4.5-8.5-1-2.8-1.4-5.5-1.1-8.1.3-2.6,1.4-4.8,3.4-6.8,0,0,.2-.1.3-.2,0-.1.2-.2.4-.2.9-.6,1.8-1.2,2.7-1.5.9-.4,1.8-.5,2.6-.4.8.1,1.5.7,2.2,1.5l5.6,8c.8,1.1,1.2,2.2,1.1,3.1,0,1-.6,2-1.7,3.1l-1.8,1.9c-.3.3-.4.6-.4.9,0,.3.1.6.3.9.4.7,1.1,1.7,2.1,3,1,1.3,2.1,2.5,3.4,3.8,1.3,1.3,2.6,2.5,3.8,3.4,1.3,1,2.3,1.7,3,2.1.3.2.7.3,1,.3s.7-.1.9-.4l1.8-1.8c1.1-1,2.1-1.6,3-1.7,1-.1,2,.2,3.2,1.1,1.7,1.1,3,2.1,4,2.8s1.9,1.3,2.5,1.7,1.2.9,1.6,1.3c1.1,1,1.6,2.1,1.5,3.4-.1,1.3-.8,2.6-2,3.8,0,.1-.2.2-.3.3s-.2.2-.3.3c-2,2-4.2,3.1-6.8,3.4s-5.3,0-8.1-1.1c-2.8-1-5.7-2.5-8.5-4.5-2.8-2-5.5-4.2-8-6.7Z"/>
</svg>