<?xml version="1.0" encoding="UTF-8"?>
<svg id="Ebene_1" xmlns="http://www.w3.org/2000/svg" version="1.1" viewBox="0 0 113.4 113.4" width="113" height="113">
  <defs>
    <style>
      .st0 {
        fill: currentColor;
      }
    </style>
  </defs>
  <path class="st0" d="M56.7,99.2c-6,0-11.7-1.1-17-3.4-5.3-2.3-10-5.5-14.1-9.5-4.1-4.1-7.2-8.7-9.5-14.1-2.3-5.3-3.5-11-3.5-17s1.1-11.7,3.5-17c2.3-5.3,5.5-10,9.5-14.1,4-4.1,8.7-7.2,14-9.5,5.3-2.3,11-3.4,17-3.4s11.7,1.1,17.1,3.4c5.3,2.3,10,5.5,14.1,9.5,4,4.1,7.2,8.7,9.5,14.1s3.5,11,3.5,17-1.2,11.7-3.5,17-5.5,10-9.5,14.1-8.7,7.2-14,9.5c-5.3,2.3-11,3.4-17,3.4ZM56.7,93.5c5.3,0,10.3-1,14.9-3,4.6-2,8.7-4.7,12.3-8.3,3.5-3.5,6.3-7.6,8.3-12.2,2-4.6,3-9.6,3-14.9s-1-10.3-3-14.9c-2-4.6-4.7-8.7-8.3-12.3-3.5-3.5-7.6-6.3-12.2-8.3-4.6-2-9.6-3-15-3s-10.3,1-14.9,3c-4.6,2-8.7,4.7-12.2,8.3-3.5,3.5-6.2,7.6-8.2,12.3-2,4.6-3,9.6-3,14.9s1,10.3,3,14.9c2,4.6,4.7,8.7,8.2,12.2s7.6,6.3,12.2,8.3c4.6,2,9.6,3,14.9,3ZM45,73c-2.2,0-3.8-.6-4.9-1.9-1.1-1.3-1.6-2.9-1.6-4.7v-14.8c0-3.1.2-6.1.6-9,.4-2.8.8-5.1,1.2-6.8.4-1.7,1.2-3.1,2.4-4.2,1.1-1.1,2.6-1.8,4.4-1.9.8-.1,2.1-.2,3.8-.4,1.7-.1,3.6-.2,5.8-.2s4.1,0,5.8.2c1.7.1,3,.2,3.9.4,1.7.2,3.2.8,4.3,1.9,1.2,1.1,1.9,2.5,2.4,4.2.4,1.7.9,4,1.3,6.8.4,2.8.6,5.8.6,9v14.8c0,1.9-.5,3.5-1.6,4.7-1.1,1.3-2.7,1.9-4.9,1.9h-23.2ZM41.9,81.6c-.4,0-.7-.2-.9-.5-.2-.3-.1-.7.1-1.1l5.1-8.2h3.5l-5.7,9.2c-.2.4-.6.6-1.1.6h-1.1ZM56.6,59.1c2,0,4,0,6-.1s3.8-.2,5.4-.4c1.3-.1,2-.9,2-2.4v-5.1c0-2.1,0-3.9-.3-5.6-.2-1.7-.4-3-.6-4-.2-1.2-.9-1.8-2-1.9-1.2-.1-2.6-.3-4.2-.4-1.7,0-3.8-.1-6.3,0-2.6,0-4.7,0-6.4.1-1.7,0-3.1.2-4.4.3-1,.1-1.6.8-1.9,1.9-.2,1-.4,2.3-.6,4-.2,1.7-.3,3.5-.3,5.6v5.1c0,1.4.7,2.2,2.1,2.4,1.2.1,2.8.3,4.9.3,2,0,4.2.1,6.6.2ZM46.6,68.3c.8,0,1.5-.3,2-.8.5-.5.8-1.2.8-2s-.3-1.5-.8-2-1.2-.8-2-.8-1.5.3-2,.8c-.5.5-.8,1.2-.8,2s.3,1.5.8,2c.5.5,1.2.8,2,.8ZM43.9,79.1v-2.8h25.4v2.8h-25.4ZM51,35.7h11.2c.4,0,.6-.1.8-.3s.3-.5.3-.8-.1-.6-.3-.8c-.2-.2-.5-.3-.8-.3h-11.2c-.8,0-1.2.4-1.2,1.1s.4,1.1,1.2,1.1ZM70.4,81.6c-.5,0-.9-.2-1.1-.6l-5.7-9.2h3.5l5,8.2c.3.4.3.7.2,1.1-.2.3-.4.5-.9.5h-1.1ZM66.7,68.3c.8,0,1.4-.3,2-.8s.8-1.2.8-2-.3-1.5-.8-2c-.5-.5-1.2-.8-2-.8s-1.5.3-2,.8c-.5.5-.8,1.2-.8,2s.3,1.5.8,2c.5.5,1.2.8,2,.8Z"/>
</svg>