<?xml version="1.0" encoding="UTF-8"?>
<svg id="Ebene_1" xmlns="http://www.w3.org/2000/svg" version="1.1" viewBox="0 0 113.4 113.4" width="113" height="113">
  <defs>
    <style>
      .st0 {
        fill: currentColor;
      }
    </style>
  </defs>
  <path class="st0" d="M56.7,99.2c-6,0-11.7-1.1-17-3.4-5.3-2.3-10-5.5-14.1-9.5-4.1-4.1-7.2-8.7-9.5-14.1-2.3-5.3-3.5-11-3.5-17s1.1-11.7,3.5-17c2.3-5.3,5.5-10,9.5-14.1,4-4.1,8.7-7.2,14-9.5,5.3-2.3,11-3.4,17-3.4s11.7,1.1,17.1,3.4c5.3,2.3,10,5.5,14.1,9.5,4,4.1,7.2,8.7,9.5,14.1s3.5,11,3.5,17-1.2,11.7-3.5,17-5.5,10-9.5,14.1-8.7,7.2-14,9.5c-5.3,2.3-11,3.4-17,3.4ZM56.7,93.5c5.3,0,10.3-1,14.9-3,4.6-2,8.7-4.7,12.3-8.3,3.5-3.5,6.3-7.6,8.3-12.2,2-4.6,3-9.6,3-14.9s-1-10.3-3-14.9c-2-4.6-4.7-8.7-8.3-12.3-3.5-3.5-7.6-6.3-12.2-8.3-4.6-2-9.6-3-15-3s-10.3,1-14.9,3c-4.6,2-8.7,4.7-12.2,8.3-3.5,3.5-6.2,7.6-8.2,12.3-2,4.6-3,9.6-3,14.9s1,10.3,3,14.9c2,4.6,4.7,8.7,8.2,12.2s7.6,6.3,12.2,8.3c4.6,2,9.6,3,14.9,3ZM43.3,81.7c-.7,0-1.3-.2-1.8-.7-.5-.5-.7-1.1-.7-1.8s.1-1,.4-1.3c.2-.4.5-.7.8-1.1l7.3-8.6,1.3-6.4,4.3,5.4-.5,2.2c-.1.5-.2.8-.4,1-.1.2-.4.5-.8,1l-7.9,9.4c-.5.6-1.2.9-2.1.9ZM66.8,81.6c-.5,0-1-.1-1.5-.4-.5-.3-.8-.7-1.1-1.3l-5.5-11.2c-.1-.2-.2-.4-.3-.6,0-.2-.2-.4-.5-.7l-5.1-6.4c-.7-.9-1.4-1.9-1.9-3s-.8-2.4-.6-3.9l.4-5.4c0-.5-.1-.8-.4-1-.3-.1-.6,0-1,.2l-2.2,1.9-.5,6.4c-.2,1.8-1.1,2.7-2.6,2.6-.8,0-1.5-.3-1.9-.9-.4-.5-.6-1.2-.6-2.1l.5-5.9c0-.8.3-1.6.5-2.2.2-.6.7-1.2,1.4-1.9l4.2-3.9c1.3-1.3,2.6-2.2,3.8-2.9s2.5-1,3.8-1c2,0,3.5.6,4.5,1.9s1.4,2.8,1.3,4.7l-.5,7.1c0,1.3-.2,2.5-.5,3.6-.2,1-.6,2.2-1,3.6l-.2.6,3.1,4.5c.2.3.4.7.7,1.1s.5.8.8,1.3l5.1,10.4c.2.4.3.7.4,1,0,.3.1.6.1.9,0,.8-.3,1.5-.8,1.9-.5.5-1.1.7-1.8.7ZM58.8,36.4c-1.6,0-2.9-.5-4-1.6s-1.6-2.4-1.6-3.9.5-2.9,1.6-4c1.1-1.1,2.4-1.6,4-1.6s2.9.5,4,1.6c1.1,1.1,1.7,2.4,1.7,4s-.6,2.8-1.7,3.9-2.4,1.6-4,1.6ZM68.1,53.5c-1.3,0-2.4-.4-3.1-1.1l-1.9-1.9.5-6.7,4.2,4.6h6.3c.9,0,1.6.2,2.1.7s.7,1.1.7,1.8-.2,1.4-.7,1.9c-.5.5-1.2.7-2.1.7h-6Z"/>
</svg>